<?xml version="1.0" encoding="utf-8"?>
<!-- Generator: Adobe Illustrator 23.0.3, SVG Export Plug-In . SVG Version: 6.00 Build 0)  -->
<svg version="1.1" xmlns="http://www.w3.org/2000/svg" xmlns:xlink="http://www.w3.org/1999/xlink" x="0px" y="0px"
	 viewBox="0 0 600 600" style="enable-background:new 0 0 600 600;" xml:space="preserve">
<style type="text/css">
	.st0{fill:#A3A3A3;}
	.st1{fill:#FFFFFF;}
	.st2{fill:#EB506E;}
	.st3{fill:#202124;}
	.st4{fill:#DBDBDB;}
	.st5{fill:#EAEAEA;}
	.st6{fill:#A3A3A3;stroke:#202124;stroke-width:0.75;stroke-miterlimit:10;}
	.st7{fill:#FFFFFF;stroke:#202124;stroke-width:0.75;stroke-miterlimit:10;}
	.st8{fill:none;stroke:#202124;stroke-width:0.75;stroke-miterlimit:10;}
	.st9{fill:#86A9E0;}
	.st10{fill:#6B9CE8;}
	.st11{fill:#F2F2F2;}
	.st12{fill:#E2E2E2;}
	.st13{fill:#C9C9C9;}
	.st14{fill:#5185EC;}
	.st15{fill:#B1CEFC;}
	.st16{fill:none;}
	.st17{fill:#040844;}
	.st18{fill:#F7CD5B;}
	.st19{fill:#5185EC;stroke:#5185EC;stroke-miterlimit:10;}
</style>
<g id="background">
	<g id="window">
		<rect x="388.4" y="36.2" class="st0" width="194.1" height="185.3"/>
		<polygon class="st1" points="582.5,125.5 485.4,125.5 485.4,36.2 481.6,36.2 481.6,125.5 388.4,125.5 388.4,131.2 481.6,131.2 
			481.6,221.8 485.4,221.8 485.4,131.2 582.5,131.2 		"/>
	</g>
	<g id="moon">
		<path class="st2" d="M420.5,79.9c0-9.3,4.5-17.6,11.5-22.7c-1.9-0.4-3.8-0.7-5.9-0.7c-14.1,0-25.5,11.4-25.5,25.5
			s11.4,25.5,25.5,25.5c3.7,0,7.2-0.8,10.3-2.2C427,100.8,420.5,91.1,420.5,79.9z"/>
	</g>
	<g id="table">
		<rect x="227.1" y="275.5" class="st3" width="9.9" height="172.8"/>
		<rect x="373.5" y="269.5" class="st3" width="9.9" height="172.8"/>
		<rect x="23" y="331" class="st3" width="9.9" height="217.3"/>
		<path class="st4" d="M12,334.2c62.3,3.4,124.6,6.9,186.8,10.3l194.8-73.5c0.2-2.3,0.4-4.6,0.6-6.8c-52.7-1-105.3-2.1-158-3.1
			C161.4,283,86.5,304.9,11.7,326.9C11.8,329.3,11.9,331.8,12,334.2z"/>
		<polygon class="st5" points="13,326.7 198.8,337.4 393.6,263.9 236.2,253.9 		"/>
	</g>
	<g id="laptop">
		<polygon class="st6" points="102.4,307.1 210.8,315.1 286.9,281.2 199.8,271.7 		"/>
		<path class="st6" d="M85.6,214.9c0,1.7,16.8,92.1,16.8,92.1l97.4-35.4l-13.2-78.1L85.6,214.9z"/>
		<polygon class="st7" points="91.1,218.3 106.5,301.5 195.1,268.7 184,196.8 		"/>
		<path class="st7" d="M114.6,305c0.7-0.2,75.6,6,75.6,6l69.8-30.4l-59-7L114.6,305z"/>
		<line class="st8" x1="123.3" y1="301.5" x2="199.8" y2="306.8"/>
		<line class="st8" x1="137.2" y1="296.8" x2="209.8" y2="302.5"/>
		<line class="st8" x1="179.3" y1="310.1" x2="250.7" y2="279"/>
		<line class="st8" x1="181.8" y1="280.6" x2="243.6" y2="287.8"/>
		<line class="st8" x1="192.3" y1="276.8" x2="253" y2="283.7"/>
		<line class="st8" x1="127.6" y1="305.9" x2="209.3" y2="274.7"/>
		<line class="st8" x1="143.1" y1="307.2" x2="218.9" y2="275.5"/>
		<line class="st8" x1="161.6" y1="308.7" x2="230.3" y2="277.1"/>
		<line class="st8" x1="153.4" y1="290.9" x2="211.9" y2="295.9"/>
		<line class="st8" x1="169.8" y1="285" x2="225.7" y2="289.9"/>
		<g>
			<g>
				<path class="st9" d="M129.9,218.4c8.2-1.8,16.4-3.9,24.5-6.3c1.8-0.6,1.1-3.5-0.8-2.9c-8.1,2.4-16.2,4.5-24.5,6.3
					C127.2,215.9,128,218.8,129.9,218.4L129.9,218.4z"/>
			</g>
		</g>
		<g>
			<g>
				<path class="st3" d="M102.6,238.4c20.4-4.8,40.6-10.8,60.3-17.8c1.4-0.5,0.8-2.7-0.6-2.2c-19.8,7.1-39.9,13-60.3,17.8
					C100.6,236.6,101.2,238.8,102.6,238.4L102.6,238.4z"/>
			</g>
		</g>
		<g>
			<g>
				<path class="st3" d="M104.9,248.7c24.4-7.7,49-14.6,73.8-20.9c1.4-0.4,0.8-2.5-0.6-2.2c-24.8,6.2-49.4,13.2-73.8,20.9
					C102.9,246.9,103.5,249.1,104.9,248.7L104.9,248.7z"/>
			</g>
		</g>
		<g>
			<g>
				<path class="st3" d="M143.1,246.8c12.7-3.8,25.4-7.7,38.1-11.7c1.4-0.4,0.8-2.6-0.6-2.2c-12.7,3.9-25.4,7.8-38.1,11.7
					C141.1,245,141.7,247.2,143.1,246.8L143.1,246.8z"/>
			</g>
		</g>
		<g>
			<g>
				<path class="st3" d="M109.3,265.9c16.5-5.1,33-10.2,49.5-15.2c1.4-0.4,0.8-2.6-0.6-2.2c-16.5,5.1-33,10.2-49.5,15.2
					C107.3,264.1,107.9,266.3,109.3,265.9L109.3,265.9z"/>
			</g>
		</g>
		<g>
			<g>
				<path class="st3" d="M132.3,270.6c15.2-5.5,30.6-10.4,46.1-14.6c1.4-0.4,0.8-2.6-0.6-2.2c-15.6,4.3-30.9,9.2-46.1,14.6
					C130.3,268.9,130.9,271.1,132.3,270.6L132.3,270.6z"/>
			</g>
		</g>
	</g>
	<g id="plant">
		<path class="st3" d="M69.1,322.7H50c-2.3,0-4.3-1.8-4.6-4.1l-4.7-43.1c-0.3-2.7,1.8-5.1,4.6-5.1h29.1c2.8,0,4.9,2.4,4.5,5.1
			l-5.4,43.1C73.3,321,71.4,322.7,69.1,322.7z"/>
		<ellipse class="st7" cx="59.9" cy="273" rx="19.2" ry="5"/>
		<g>
			<g>
				<path class="st10" d="M55.6,205c-6.1,9.7-5.9,20.2-2.4,30.8c2,6,4.7,11.9,5.1,18.3c0.4,6.5-1,13.3-1.8,19.7
					c-0.2,1.9,2.8,1.9,3,0c0.8-5.9,2-11.9,1.9-17.9c-0.1-5.1-1.4-10-3.1-14.8c-4.1-12-7.4-23-0.1-34.6
					C59.2,204.9,56.6,203.4,55.6,205L55.6,205z"/>
			</g>
		</g>
		<g>
			<g>
				<path class="st10" d="M39.1,220.7c-0.7,7.5,4.6,12.1,9.2,17.2c6.2,6.8,9.6,15.3,10.1,24.5c0.1,1.9,3.1,1.9,3,0
					c-0.4-7-2.3-13.8-5.9-19.8c-4.2-7-14.2-12.9-13.4-21.9C42.3,218.8,39.3,218.8,39.1,220.7L39.1,220.7z"/>
			</g>
		</g>
		<g>
			<g>
				<path class="st10" d="M54.5,227c3.1-4.2,6.7-8.3,9.1-12.9c2.3-4.6,3.6-9.5,6.2-14c1-1.7-1.6-3.2-2.6-1.5
					c-2.6,4.4-3.9,9.4-6.2,14c-2.4,4.7-6,8.8-9.1,12.9C50.7,227,53.3,228.5,54.5,227L54.5,227z"/>
			</g>
		</g>
		<path class="st10" d="M43.1,239.5c2.5,0.8,8,2.1,8.8,0.4c1.1-2.2-5.7-9.9-14.1-10.8c-2.7-0.3-5.1,0.2-6.8,0.7
			C32.5,232.1,36.3,237.3,43.1,239.5z"/>
		<path class="st10" d="M41,225.6c-1-1.3-4.1-5.8-3.7-11.9c0.7-10.1,10.4-15,10.8-15.2c0.7,2.5,2.4,9.7-0.7,17.6
			C45.6,220.7,42.9,223.9,41,225.6z"/>
		<path class="st10" d="M55.5,208.2c-0.5-1.9-1.1-5.5-0.1-9.7c1.8-7.1,7-10.8,8.4-11.8c0.5,1.7,1.5,5.7,0.2,10.4
			C62.2,204,56.7,207.4,55.5,208.2z"/>
		<path class="st10" d="M57.9,244.8c-0.3-1.5-1.1-6.8,1.8-12.3c3.4-6.4,9.3-8.5,10.6-8.9c0.2,1.9,0.1,4.2-0.5,6.8
			C67.7,239.2,59.9,243.8,57.9,244.8z"/>
		<path class="st10" d="M56,222.5c2.1-3.4,6-8.7,12.4-13.1c4-2.8,7.8-4.5,10.8-5.5c-0.3,2.2-1.2,7.1-5.1,11.5
			C67.3,223,57.3,222.5,56,222.5z"/>
	</g>
	<g id="papers">
		<path class="st1" d="M230.3,208.2c0,19.4,0,38.9,0,58.3c15.8,1.7,31.7,3.4,47.5,5.2c10.4-4.1,20.7-8.1,31.1-12.2
			c0.5-18.6,0.9-37.1,1.4-55.7c-13.3-1.5-26.7-3-40-4.4C257,202.3,243.7,205.2,230.3,208.2z"/>
		<polygon class="st11" points="230.3,208.2 230.3,266.5 277.8,271.7 309,259.5 310.3,203.8 270.3,199.4 		"/>
		<line class="st8" x1="230.3" y1="208.2" x2="275.6" y2="213.5"/>
		<line class="st8" x1="308.9" y1="204.9" x2="275.6" y2="213.5"/>
		<line class="st8" x1="276.9" y1="270.5" x2="277.1" y2="213.1"/>
		<line class="st8" x1="255.5" y1="207.7" x2="267" y2="209.2"/>
		<line class="st8" x1="258.7" y1="204.7" x2="282.5" y2="207.7"/>
		<line class="st8" x1="272.9" y1="202.9" x2="292.3" y2="204.5"/>
		<line class="st8" x1="230.3" y1="212.5" x2="277" y2="217.7"/>
		<line class="st8" x1="230.3" y1="219.3" x2="261.2" y2="222.8"/>
		<line class="st8" x1="236.1" y1="226.7" x2="277" y2="230.8"/>
		<line class="st8" x1="230.3" y1="231.9" x2="277" y2="235.5"/>
		<line class="st8" x1="230.3" y1="238.5" x2="272.9" y2="241.8"/>
		<line class="st8" x1="230.3" y1="245.5" x2="272.9" y2="248.1"/>
		<line class="st8" x1="240.4" y1="251.4" x2="276.4" y2="253.9"/>
		<line class="st8" x1="230.3" y1="256" x2="275.4" y2="259.5"/>
		<line class="st8" x1="237" y1="261.6" x2="277" y2="265.4"/>
		<line class="st8" x1="277.8" y1="221.1" x2="310.3" y2="211.6"/>
		<line class="st8" x1="282.6" y1="214.6" x2="310.2" y2="207.7"/>
		<line class="st8" x1="277.8" y1="233.1" x2="309.9" y2="222.8"/>
		<line class="st8" x1="285.6" y1="224.3" x2="304" y2="218.8"/>
		<line class="st8" x1="277" y1="243.6" x2="309.6" y2="232.4"/>
		<line class="st8" x1="279.4" y1="238" x2="292.3" y2="233.7"/>
		<line class="st8" x1="276.9" y1="256" x2="302.4" y2="246.8"/>
		<line class="st8" x1="282.6" y1="248.2" x2="309.4" y2="240.2"/>
		<line class="st8" x1="277.6" y1="265.4" x2="309.1" y2="253.9"/>
	</g>
	<g id="chair_sit">
		<path class="st12" d="M352.7,530.6v-60.4h12.6l9.2-27.8h-58.3l7.7,27.8h16.7v60.5c-19.2,1.3-33.7,7.8-33.7,15.7
			c0,8.8,18.2,15.9,40.8,15.9s40.8-7.1,40.8-15.9C388.4,538.2,372.8,531.5,352.7,530.6z"/>
		<path class="st13" d="M248,424.9c0.2,4.1,0.4,8.3,0.6,12.4c0.3,6,5.1,10.8,11.2,11c31.2,1.1,62.4,2.2,93.7,3.2
			c2,0.1,3.9-0.4,5.6-1.2c26.4-13.4,52.9-26.8,79.3-40.2c6-3,8.2-10.6,4.7-16.3c-2.2-3.6-4.3-7.1-6.5-10.7
			c-2.5-4.2-7.5-6.3-12.3-5.3c-55.7,11.7-111.4,23.5-167.1,35.2C251.6,414.2,247.7,419.2,248,424.9z"/>
	</g>
	<g id="calendar">
		<path class="st1" d="M186,60c-0.5,7.5-0.9,15.3-1.1,23.3c-0.4,17.7,0.1,34.3,1.2,49.7c4,0.9,7.9,1.7,11.9,2.6
			c3.6-2.1,7.2-4.1,10.7-6.2c0.6,1.8,1.1,3.6,1.7,5.3c3.4,0.1,8.1,0.1,13.6-0.8c2.5-0.4,9.7-1.5,20.1-5.8
			c7.1-2.9,17.9-8.3,29.8-17.8c-1.4-1.2-3.3-2.8-5.2-4.9c-1.4-1.5-5.2-5.8-8.4-12.6c-2.9-6.2-3.8-11.1-5.3-19.8
			c-0.9-5.3-1.9-12.5-2.3-21.1c-4.1,0.6-8.4,1.1-12.6,1.6c-15.1,1.7-29.6,2.6-43.3,2.8C193.1,57.6,189.5,58.8,186,60z"/>
		<path class="st2" d="M196.7,56.5c-0.2,3.8-0.3,7.6-0.5,11.4c19-1.7,38-3.4,57.1-5.1c-0.2-3.6-0.4-7.1-0.6-10.7
			C234,53.5,215.3,55,196.7,56.5z"/>
		<g>
			<g>
				<path class="st3" d="M185.6,60c-1.7,24.3-1.7,48.7,0,73.1c0,0.5,0.8,0.5,0.8,0c-1.7-24.3-1.7-48.7,0-73.1
					C186.4,59.5,185.6,59.5,185.6,60L185.6,60z"/>
			</g>
		</g>
		<g>
			<g>
				<path class="st3" d="M187.6,59.5c2.1-0.4,4.2-0.9,6.2-1.7c0.5-0.2,0.3-0.9-0.2-0.7c-2,0.7-4.1,1.3-6.2,1.7
					C186.9,58.9,187.1,59.6,187.6,59.5L187.6,59.5z"/>
			</g>
		</g>
		<g>
			<g>
				<path class="st3" d="M196.7,56.8c17.7-1.1,35.4-2.3,53.2-3.4c0.5,0,0.5-0.8,0-0.8c-17.7,1.1-35.4,2.3-53.2,3.4
					C196.2,56.1,196.2,56.9,196.7,56.8L196.7,56.8z"/>
			</g>
		</g>
		<g>
			<g>
				<path class="st3" d="M195.4,59.2c0.6,25.3,5.4,50.3,14.2,74c0.2,0.4,0.9,0.3,0.7-0.2c-8.8-23.7-13.6-48.6-14.2-73.8
					C196.1,58.7,195.4,58.7,195.4,59.2L195.4,59.2z"/>
			</g>
		</g>
		<g>
			<g>
				<path class="st3" d="M252.1,59.1c3.4,17.2,4.2,37.2,18.9,49.1c0.4,0.3,0.9-0.2,0.5-0.5c-14.7-11.9-15.4-31.7-18.7-48.8
					C252.8,58.5,252,58.7,252.1,59.1L252.1,59.1z"/>
			</g>
		</g>
		<g>
			<g>
				<path class="st3" d="M211.9,135.1c22.7,0.7,42.7-10.5,60.7-23.1c0.4-0.3,0-0.9-0.4-0.6c-18,12.5-37.8,23.7-60.3,23
					C211.4,134.3,211.4,135.1,211.9,135.1L211.9,135.1z"/>
			</g>
		</g>
		<g>
			<g>
				<path class="st3" d="M186.2,133.4c3.8,1.4,7.7,2.2,11.7,2.6c0.5,0,0.5-0.7,0-0.8c-4-0.4-7.8-1.3-11.5-2.6
					C185.9,132.6,185.7,133.3,186.2,133.4L186.2,133.4z"/>
			</g>
		</g>
		<g>
			<g>
				<path class="st3" d="M195.8,67.9c-0.6,21.9,0.1,43.8,2.1,65.6c0,0.5,0.8,0.5,0.8,0c-2-21.8-2.7-43.7-2.1-65.6
					C196.5,67.4,195.8,67.4,195.8,67.9L195.8,67.9z"/>
			</g>
		</g>
		<g>
			<g>
				<path class="st3" d="M199,136.1c2.6-1.5,5.2-3.1,7.9-4.6c0.4-0.2,0-0.9-0.4-0.6c-2.6,1.5-5.2,3.1-7.9,4.6
					C198.2,135.7,198.6,136.3,199,136.1L199,136.1z"/>
			</g>
		</g>
		<g>
			<g>
				<path class="st3" d="M190,67.1c-1,19.8-0.8,39.6,0.5,59.4c0,0.5,0.8,0.5,0.8,0c-1.3-19.8-1.5-39.6-0.5-59.4
					C190.8,66.6,190,66.6,190,67.1L190,67.1z"/>
			</g>
		</g>
		<g>
			<g>
				<path class="st3" d="M193,98.2c-0.5,11.2-0.1,22.5,1.2,33.6c0.1,0.5,0.8,0.5,0.8,0c-1.3-11.2-1.6-22.4-1.2-33.6
					C193.8,97.7,193.1,97.7,193,98.2L193,98.2z"/>
			</g>
		</g>
		<g>
			<g>
				<path class="st3" d="M211.7,72.6c4.5,18.1,11.5,35.4,21,51.5c0.2,0.4,0.9,0,0.6-0.4c-9.5-16-16.5-33.2-20.9-51.3
					C212.3,71.9,211.6,72.1,211.7,72.6L211.7,72.6z"/>
			</g>
		</g>
		<g>
			<g>
				<path class="st3" d="M229.8,69c6.3,14.1,14.2,27.2,23.6,39.4c0.3,0.4,0.8-0.2,0.5-0.5c-9.4-12.1-17.2-25.2-23.5-39.2
					C230.2,68.2,229.6,68.6,229.8,69L229.8,69z"/>
			</g>
		</g>
		<g>
			<g>
				<path class="st3" d="M204.7,93.8c15.9-3.1,31.1-8.7,45.2-16.6c0.4-0.2,0-0.9-0.4-0.6c-14.1,7.9-29.2,13.4-45.1,16.5
					C204,93.2,204.2,93.9,204.7,93.8L204.7,93.8z"/>
			</g>
		</g>
		<g>
			<g>
				<path class="st3" d="M206.8,113c8.8-3.6,17.7-7.1,26.5-10.7c7.1-2.9,14.3-5.7,20.6-10.2c0.4-0.3,0-0.9-0.4-0.6
					c-6.8,4.9-14.6,7.8-22.2,10.9c-8.2,3.3-16.4,6.7-24.7,10C206.2,112.5,206.4,113.2,206.8,113L206.8,113z"/>
			</g>
		</g>
		<g>
			<g>
				<path class="st3" d="M201.9,81.1c3.4,2,7,3.4,10.9,4.3c0.5,0.1,0.7-0.6,0.2-0.7c-3.8-0.9-7.3-2.3-10.7-4.3
					C201.8,80.2,201.4,80.8,201.9,81.1L201.9,81.1z"/>
			</g>
		</g>
		<g>
			<g>
				<path class="st3" d="M210.1,77.2c-2.5,2.9-4.6,6.1-6.3,9.6c-0.2,0.4,0.4,0.8,0.6,0.4c1.7-3.4,3.7-6.6,6.2-9.4
					C211,77.4,210.4,76.8,210.1,77.2L210.1,77.2z"/>
			</g>
		</g>
		<g>
			<g>
				<path class="st3" d="M220.7,76.1c2.9,1.2,5.7,2.4,8.6,3.6c0.4,0.2,0.6-0.5,0.2-0.7c-2.9-1.2-5.7-2.4-8.6-3.6
					C220.4,75.2,220.2,75.9,220.7,76.1L220.7,76.1z"/>
			</g>
		</g>
		<g>
			<g>
				<path class="st3" d="M227.5,72.2c-2.6,2.7-4.7,5.8-6.2,9.2c-0.2,0.4,0.5,0.8,0.6,0.4c1.5-3.4,3.5-6.4,6.1-9.1
					C228.4,72.4,227.9,71.9,227.5,72.2L227.5,72.2z"/>
			</g>
		</g>
		<g>
			<g>
				<path class="st3" d="M239.8,71.6c2.2,0.8,4.4,1.6,6.7,2.4c0.5,0.2,0.6-0.6,0.2-0.7c-2.2-0.8-4.4-1.6-6.7-2.4
					C239.5,70.7,239.3,71.4,239.8,71.6L239.8,71.6z"/>
			</g>
		</g>
		<g>
			<g>
				<path class="st3" d="M245.3,67.1c-3.4,4-6.5,8.3-9.5,12.7c-0.3,0.4,0.4,0.8,0.6,0.4c2.9-4.3,6-8.5,9.3-12.5
					C246.2,67.3,245.6,66.8,245.3,67.1L245.3,67.1z"/>
			</g>
		</g>
		<g>
			<g>
				<path class="st3" d="M206.1,99.3c3.6,0.9,6.9,2.3,10.1,4.1c0.4,0.2,0.8-0.4,0.4-0.6c-3.3-1.8-6.7-3.2-10.3-4.2
					C205.9,98.4,205.7,99.2,206.1,99.3L206.1,99.3z"/>
			</g>
		</g>
		<g>
			<g>
				<path class="st3" d="M215,95.4c-2.8,2.9-4.9,6.4-6.3,10.2c-0.2,0.5,0.6,0.6,0.7,0.2c1.3-3.7,3.4-7,6.1-9.8
					C215.9,95.6,215.4,95.1,215,95.4L215,95.4z"/>
			</g>
		</g>
		<g>
			<g>
				<path class="st14" d="M250.7,108.4c-4.4-4.6,2.3-15.5,8.3-12.3c5.8,3.1,2.6,14.8-4,14.6c-7.8-0.2-7.1-12.1-0.9-14.2
					c3.6-1.3,7.4,4,6.9,7.2c-0.6,3.7-4.1,4.6-7.2,3.6c-0.5-0.2-0.7,0.6-0.2,0.7c2.3,0.8,5.2,0.7,7-1.3c1.9-2.2,1.1-5.5-0.2-7.8
					c-3.7-6.3-10.8-2.5-11.7,3.6c-0.9,5.7,5.1,11.9,10.4,7.4c4.4-3.7,6-13.8-1.3-15.2c-6.5-1.3-12,9.6-7.6,14.3
					C250.5,109.3,251,108.7,250.7,108.4L250.7,108.4z"/>
			</g>
		</g>
	</g>
</g>
<g id="character">
	<g id="leg_right">
		<path class="st2" d="M266.2,502.4c0,0-3.8,0.2-7.7,1.1c-10.9,2.6-29.2,13-27.7,17c0.8,2.3,7.6,0.8,36.5-0.2
			c6.5-0.2,11.8-0.3,15.4-0.4c-1.4-5.6-2.7-11.1-4.1-16.7C275.6,502.7,271.3,502.1,266.2,502.4z"/>
		<g>
			<g>
				<path class="st1" d="M263.1,504.7c-1.2-0.8-2.3-1.7-3.3-2.8c-0.5-0.6-2.7-3.3-2.4-4.2c0.5-0.5,1.1-1,1.6-1.5
					c0.3,0.4,0.6,0.8,0.9,1.1c0.4,0.5,0.7,1.1,1,1.7c0.7,1.5,1.2,3.2,1.7,4.8c0.1,0.2,0.3,0.3,0.5,0.3c1.3-0.5,2.6-0.6,3.9,0.2
					c0.8,0.4,2.9,2.5,1.2,2.9c-0.5,0.1-2.3-1-2.8-1.2c-0.9-0.4-1.8-0.8-2.8-1.2c-0.4-0.2-0.8,0.5-0.4,0.6c2.1,0.9,4.7,2.6,7.1,2.9
					c0.1,0,0.3-0.1,0.3-0.2c1.4-2-2.1-4.8-3.7-5.1c-0.6-0.1-1.1,0-1.7-0.1c-1.4-0.1-1.3-0.7-1.8-2c-0.6-1.7-1.3-3.3-2.4-4.7
					c-1.3-1.6-3.6-1.6-3.5,0.9c0.1,3.3,3.7,6.6,6.2,8.2C263.2,505.6,263.5,504.9,263.1,504.7L263.1,504.7z"/>
			</g>
		</g>
		<g>
			<g>
				<path class="st1" d="M246.1,508.1c1.4,0.2,2.5,1,3.1,2.2c0.2,0.4,0.9,0.1,0.6-0.4c-0.7-1.5-2.1-2.4-3.8-2.6
					C245.6,507.2,245.7,508,246.1,508.1L246.1,508.1z"/>
			</g>
		</g>
		<g>
			<g>
				<path class="st1" d="M250.6,506.1c1.4,0.1,2.6,0.9,3.2,2.1c0.2,0.4,0.9,0,0.6-0.4c-0.8-1.5-2.2-2.4-3.9-2.5
					C250.1,505.3,250.1,506.1,250.6,506.1L250.6,506.1z"/>
			</g>
		</g>
		<g>
			<g>
				<path class="st1" d="M254.9,504.4c1.4,0.4,2.4,1.4,2.9,2.7c0.1,0.5,0.9,0.3,0.7-0.2c-0.5-1.6-1.8-2.8-3.4-3.3
					C254.6,503.6,254.4,504.3,254.9,504.4L254.9,504.4z"/>
			</g>
		</g>
		<g>
			<g>
				<path class="st1" d="M244.9,519.7c10.8-0.8,21.7-1.3,32.6-1.5c0.5,0,0.5-0.8,0-0.8c-10.9,0.2-21.7,0.8-32.6,1.5
					C244.4,519,244.4,519.7,244.9,519.7L244.9,519.7z"/>
			</g>
		</g>
		<path class="st15" d="M259.5,414.8c2.6,13.4,5.4,27.1,8.4,40.9c3.6,16.5,7.2,32.7,11,48.6c-1.1,0.4-2.4,0.9-3.8,1.2
			c-4,1-7.6,1.1-10.4,0.9c-5-10.9-8.9-19.5-11.3-24.6c-9.2-19.8-15.6-40.8-23.6-61.1c-1.6-4.1-5.5-14-1.2-19.5
			c1.6-2.1,4.9-4.2,7.7-5.9c3.4-2.2,6.2-3.5,7.5-4c11.5-5.1,21.7-7.6,21.7-7.6c41.1-10,37.1-10.3,51.6-12.8c8.6-1.5,13.4-2,21-4.8
			c10.1-3.7,11-6.1,18.7-8.1c5.7-1.4,18.7-4.7,26.6,2.7c8.4,7.8,5.3,21.9,5,23.2c-1.1,2.1-2.7,4.8-5,7.8c-1.6,2-5.1,6.5-10.7,10.6
			c-1.9,1.4-6.6,4.5-15.1,7c-9.5,2.8-17.1,2.9-25,3c-20.5,0.1-33.4,0.2-38.5,0.3C285.8,412.6,274,413.1,259.5,414.8z"/>
		<g>
			<path class="st16" d="M388.4,383.8c-3.8,7.2-9.2,13.5-15.7,18.3c-2.9,2.1-6,4-9.3,5.3c-3.4,1.3-7.1,2.1-10.7,2.7
				c-30.7,5-62.4-0.2-93.2,4.7"/>
		</g>
		<g>
			<path class="st16" d="M259.8,415.4c5.2,29.8,11.6,59.5,19,88.8"/>
		</g>
		<g>
			<path class="st16" d="M263.6,504.5c-12.4-27-23.9-54.4-34.4-82.3"/>
		</g>
		<g>
			<g>
				<path class="st3" d="M228.6,401.4c7.4-6.8,16.4-10.7,25.8-13.9c9-3,18-5.9,27.1-8.4c19.5-5.5,39.6-8.1,59.1-13.4
					c0.5-0.1,0.3-0.9-0.2-0.7c-20.7,5.7-42.1,8.4-62.8,14.5c-16.8,4.9-36.4,9.2-49.6,21.4C227.7,401.2,228.3,401.7,228.6,401.4
					L228.6,401.4z"/>
			</g>
		</g>
		<g>
			<path class="st16" d="M264.7,506.4c4.1,1.3,8.7,0.6,12.1-2"/>
		</g>
	</g>
	<g id="leg_left">
		<path class="st2" d="M222.8,516c0,0-3.8,0.2-7.7,1.1c-10.9,2.6-29.2,13-27.7,17c0.8,2.3,7.6,0.8,36.5-0.2
			c6.5-0.2,11.8-0.3,15.4-0.4c-1.4-5.6-2.7-11.1-4.1-16.7C232.2,516.3,227.9,515.7,222.8,516z"/>
		<g>
			<g>
				<path class="st1" d="M226.9,510.3c1.9,0,1.9-3,0-3C225,507.3,225,510.3,226.9,510.3L226.9,510.3z"/>
			</g>
		</g>
		<g>
			<g>
				<path class="st1" d="M219.8,518.3c-1.2-0.8-2.3-1.7-3.3-2.8c-0.5-0.6-2.7-3.3-2.4-4.2c0.5-0.5,1.1-1,1.6-1.5
					c0.3,0.4,0.6,0.8,0.9,1.1c0.4,0.5,0.7,1.1,1,1.7c0.7,1.5,1.2,3.2,1.7,4.8c0.1,0.2,0.3,0.3,0.5,0.3c1.3-0.5,2.6-0.6,3.9,0.2
					c0.8,0.4,2.9,2.5,1.2,2.9c-0.5,0.1-2.3-1-2.8-1.2c-0.9-0.4-1.8-0.8-2.8-1.2c-0.4-0.2-0.8,0.5-0.4,0.6c2.1,0.9,4.7,2.6,7.1,2.9
					c0.1,0,0.3-0.1,0.3-0.2c1.4-2-2.1-4.8-3.7-5.1c-0.6-0.1-1.1,0-1.7-0.1c-1.4-0.1-1.3-0.7-1.8-2c-0.6-1.7-1.3-3.3-2.4-4.7
					c-1.3-1.6-3.6-1.6-3.5,0.9c0.1,3.3,3.7,6.6,6.2,8.2C219.8,519.2,220.2,518.5,219.8,518.3L219.8,518.3z"/>
			</g>
		</g>
		<g>
			<g>
				<path class="st1" d="M202.8,521.6c1.4,0.2,2.5,1,3.1,2.2c0.2,0.4,0.9,0.1,0.6-0.4c-0.7-1.5-2.1-2.4-3.8-2.6
					C202.3,520.8,202.3,521.6,202.8,521.6L202.8,521.6z"/>
			</g>
		</g>
		<g>
			<g>
				<path class="st1" d="M207.2,519.7c1.4,0.1,2.6,0.9,3.2,2.1c0.2,0.4,0.9,0,0.6-0.4c-0.8-1.5-2.2-2.4-3.9-2.5
					C206.7,518.9,206.7,519.7,207.2,519.7L207.2,519.7z"/>
			</g>
		</g>
		<g>
			<g>
				<path class="st1" d="M211.5,518c1.4,0.4,2.4,1.4,2.9,2.7c0.1,0.5,0.9,0.3,0.7-0.2c-0.5-1.6-1.8-2.8-3.4-3.3
					C211.3,517.2,211.1,517.9,211.5,518L211.5,518z"/>
			</g>
		</g>
		<g>
			<g>
				<path class="st1" d="M201.5,533.3c10.8-0.8,21.7-1.3,32.6-1.5c0.5,0,0.5-0.8,0-0.8c-10.9,0.2-21.7,0.8-32.6,1.5
					C201,532.5,201,533.3,201.5,533.3L201.5,533.3z"/>
			</g>
		</g>
		<path class="st15" d="M363.7,403.8c-2.6,1.8-6.3,4.2-11.1,6.3c-6,2.7-11.7,4.1-18.4,5c-6.4,0.9-11.8,1.2-27.8,1.1
			c-20-0.1-24.9-0.7-36.7-0.1c-7.5,0.4-13.5,1-17.4,1.5c-3.2,14.8-6.3,30.1-9.1,46c-3.2,18.3-5.9,36.1-8.2,53.2
			c-1.5,0.1-3.3,0.2-5.2,0.1c-2.8-0.1-5.2-0.5-7.1-1c-2.4-15.7-5.7-39.4-7.6-64.6c-0.4-5.5-0.7-14.7-1.2-33.1c0,0-0.2-7.5,0.9-22.7
			c0.6-8.6,1.3-12.8,4.3-17c2.8-3.9,6.3-5.9,9.8-7.8c8-4.4,15.2-5.5,17.9-5.9c16.8-2.7,12.5-4.6,41.8-10.7
			c21.9-4.6,29.6-5.5,32.3-5.7c13.2-1,19.9-1.6,25.1,0.8C365.9,358.2,363.9,399.8,363.7,403.8z"/>
		<g>
			<path class="st16" d="M316.3,349.2c-28.2,4.2-56,11-83,20c-3.8,1.3-7.7,2.7-10.8,5.3c-5.7,5.1-7,13.4-7.6,21
				c-3.1,40.2,2.2,80.5,7.9,120.4"/>
		</g>
		<g>
			<g>
				<path class="st1" d="M357.1,408.6c-16.5,7.2-34.5,7.6-52.1,7.3c-17.5-0.4-34.9-0.6-52.3,1.2c-0.5,0-0.5,0.8,0,0.8
					c18.6-1.9,37.1-1.4,55.8-1.2c16.7,0.2,33.6-0.7,49.1-7.5C357.9,409.1,357.5,408.4,357.1,408.6L357.1,408.6z"/>
			</g>
		</g>
		<g>
			<g>
				<path class="st1" d="M252,419.1c-7.1,32.3-12.9,65-17.2,97.8c-0.1,0.5,0.7,0.5,0.8,0c4.3-32.8,10-65.3,17.1-97.6
					C252.8,418.8,252.1,418.6,252,419.1L252,419.1z"/>
			</g>
		</g>
		<g>
			<path class="st16" d="M223.8,515.2c2.9,2,6.7,2.4,9.9,1"/>
		</g>
	</g>
	<g id="torso">
		<path class="st1" d="M347.6,221.8c4.3-1.9,7.9-3.3,10.3-4.2c10.5-3.9,27.9-10.2,49.4-9.9c2,0,3.7,0.1,4.6,0.2
			c1.2,1.9,2.8,4.6,4.4,7.9c2.5,5.3,4.1,10.3,5.6,17.2c1.6,6.9,3.5,15.6,4.2,27.6c0,0,1,17.8-2.4,37.7c-6.6,38-28.4,74.3-34.1,83.6
			c-2.7,0.6-6.1,1.1-10.1,1.4c-2.7,0.2-8.1,0.5-14.9-0.3c-4.4-0.5-10.5-1.2-17.7-4.1c-3.6-1.4-11.2-4.5-18.6-11.8
			c-6.7-6.6-10.2-13.6-12-18.1c1.8-2.7,4.2-6.4,6.9-11.1c4.4-7.9,7.2-14.5,9.8-20.9c3.1-7.4,4.6-11.1,5.7-14.9
			c2.2-7.5,2.2-11.5,3.5-26.6c0.1-1.1,1-10.5,2.9-29.2C346,235.9,347,227.4,347.6,221.8z"/>
		<path class="st17" d="M349.7,221.4c1.7-0.9,4.1-2,6.9-3.3c2.9-1.2,10.3-4.3,19.8-6.7c12.1-3,23-3.7,30.9-3.7
			c1.7,0.4,3.4,0.7,5.1,1.1c1.1,1.6,2.5,4,3.9,7c2.1,4.4,3.3,8.2,4.4,12.4c1.7,6.5,3.4,13,4.6,22.3c0.5,3.9,2,17.3,0.2,35.3
			c-0.4,4.4-1.9,17.6-7.3,35.5c-4.4,14.7-12.7,36.4-28.6,60.7c-2.4,0.5-5.9,1.1-10.1,1.4c-5.7,0.4-16.9,1.2-29.9-3.4
			c-4.8-1.7-13.3-4.8-21.3-12.7c-6.8-6.7-10.3-13.7-12-18.1c4.5-8.7,8.3-16.2,11-21.8c4.2-8.5,6.7-14,9.4-20.9
			c2.8-7.3,4-11.6,4.8-16c0.7-4.2,0.8-7.1,1.1-11.5c0.4-7.8,1.1-15.7,1.5-23.5C344.6,247.5,345.9,236.2,349.7,221.4z"/>
		<g>
			<path class="st16" d="M349.7,221.4c17.7-9.1,37.7-13.8,57.6-13.7"/>
		</g>
		<g>
			<path class="st16" d="M415.2,213.1c0.9,2.2,1.8,4.5,2.7,6.7c9.9,26.4,10.6,55.7,5,83.3c-5.7,27.6-17.5,53.7-32.1,77.8"/>
		</g>
		<g>
			<path class="st16" d="M346.7,233.1c-1.3,5.7-1.7,11.5-2.2,17.3c-0.8,9.7-1.5,19.5-2.3,29.2c-0.6,7.3-1.2,14.7-3.2,21.7
				c-1.3,4.6-3.3,8.9-5.3,13.3c-5.2,11.5-10.6,22.9-16.1,34.2"/>
		</g>
		<g>
			<path class="st16" d="M317.6,350.8c4.6,13.2,16.2,23.3,29.3,28.3s27.6,5.4,41.5,3.6"/>
		</g>
	</g>
	<g id="hand_left">
		<path class="st18" d="M248,281.4c-0.3-0.9-0.7-2.3-1.1-4c-1.3-5-2-7.6-2.3-9.2c-0.2-1.4-0.6-3.8-2.2-6.1c-0.4-0.5-0.7-0.9-1.1-0.9
			c-1,0.1-1.7,2.8-2.1,5.2c-0.7-1.2-1.8-2.9-3.4-4.7c-1.6-1.8-2.6-2.9-4.3-3.8c-0.8-0.4-3.2-1.7-6.2-1.2c-3.2,0.5-7,3-7.3,6.5
			c-0.1,1.3,0.3,2.3,0.6,3.1c1.3,0.1,3.3,0.4,5.3,1.6c0.9,0.5,2.1,1.4,4.6,4.6c2,2.6,2.6,3.7,4.5,6.5c1.6,2.3,3.2,4.7,5.2,6.9
			c1.6,1.8,4.2,4.3,8.1,6.6c0.7-0.7,1.6-1.8,2.1-3.4C249.7,285.5,248.4,282.2,248,281.4z"/>
		<path class="st17" d="M349,221.3c-2.5,0.6-5.2,3.6-10.5,9.5c-5.3,5.9-8.9,10.8-11.1,13.8c-12.2,16.6-14.1,19.6-19.2,25.6
			c-4.3,5.1-8.1,9-10.4,11.4c-4.9,0.3-10,0.6-15.2,0.7c-12.4,0.2-24-0.2-34.7-1.2c-0.7,0.9-1.4,2.1-2,3.7c-1.2,3.4-0.7,6.3-0.4,7.8
			c3.4,2.1,8,4.9,13.8,7.6c3.7,1.8,12.8,5.9,25.3,9.2c9.7,2.5,15.9,3.1,17.7,3.2c6.9,0.6,11,0.1,13.5-0.4c1.2-0.2,4.4-0.8,8.2-2.3
			c9.5-3.6,15.7-9.5,23.2-16.8c2.3-2.3,5-4.8,8.2-8.6c4.7-5.6,11.3-13.4,15.2-24.8c2.2-6.6,3.5-10.1,2.9-15
			C372,231.4,358.2,219.2,349,221.3z"/>
		<g>
			<path class="st16" d="M347.6,221.8c-19.4,16.9-30.6,41.5-49.3,59.2"/>
		</g>
		<g>
			<path class="st16" d="M247.9,281.1c16.6,1.5,33.3,1.6,49.9,0.5"/>
		</g>
		<g>
			<path class="st16" d="M248,281.4c-2.4,2.9-3.4,6.9-2.6,10.6"/>
		</g>
		<g>
			<g>
				<path class="st1" d="M245.3,292.9c12.3,7.4,25.2,13.3,39.2,16.9c11.2,2.8,23.3,5.1,34.6,2.1c22.2-5.9,37.5-28,49.3-46.3
					c0.3-0.4-0.4-0.8-0.6-0.4c-11.7,18-26.9,40.1-48.9,45.9c-11.5,3.1-23.8,0.7-35.1-2.3c-13.6-3.5-26.1-9.3-38.1-16.6
					C245.3,292,244.9,292.7,245.3,292.9L245.3,292.9z"/>
			</g>
		</g>
		<g>
			<path class="st16" d="M247.7,280.6c-1-4.1-2-8.3-3.1-12.4c-0.7-2.7-1.4-5.6-3.3-7.7c-0.1-0.2-0.3-0.3-0.5-0.3
				c-0.2,0-0.3,0.2-0.4,0.3c-0.7,1-1,2.2-0.9,3.4"/>
		</g>
		<g>
			<path class="st16" d="M244.6,291.3c-4.5-3.1-8.4-7.2-11.3-11.9c-1.8-2.9-3.2-6.1-5.4-8.7c-2.2-2.6-5.6-4.5-9-4"/>
		</g>
		<g>
			<g>
				<path class="st3" d="M218.1,263.9c3.9,0.1,7.3,1.6,10,4.3c0.3,0.3,0.9-0.2,0.5-0.5c-2.8-2.9-6.5-4.5-10.6-4.6
					C217.6,263.2,217.6,263.9,218.1,263.9L218.1,263.9z"/>
			</g>
		</g>
		<g>
			<g>
				<path class="st3" d="M221,261.6c3.6,0.5,6.8,2.3,9.1,5.1c0.3,0.4,0.8-0.2,0.5-0.5c-2.4-3-5.8-4.8-9.6-5.3
					C220.5,260.8,220.5,261.6,221,261.6L221,261.6z"/>
			</g>
		</g>
		<g>
			<g>
				<path class="st3" d="M223.8,258.7c3.4,1.2,6.3,3.3,8.3,6.3c0.3,0.4,0.9,0,0.6-0.4c-2.2-3.1-5.2-5.4-8.8-6.6
					C223.5,257.8,223.4,258.6,223.8,258.7L223.8,258.7z"/>
			</g>
		</g>
		<g>
			<path class="st16" d="M227.1,256c2,0.7,3.9,1.5,5.6,2.7c1.6,1,3.2,2.4,3.4,4.3"/>
		</g>
	</g>
	<g id="head">
		<path class="st18" d="M349.2,186.6c-0.8,1.2-1.9,3.2-2.5,5.9c-0.3,1.3-1.2,5.9,1.1,10.9c0.8,1.8,2.3,4.8,5.8,6.6
			c3.4,1.7,6.8,1.1,7.9,0.8c0.8,1.5,1.6,3,2.4,4.4c1.8-0.4,4.5-1.2,7.2-3.1c2-1.3,4.9-3.3,6.5-6.8c2.1-4.7,0.6-9.5-1.2-15.2
			c-1.1-3.5-1.6-5.2-2.7-6.4C369.7,179.5,359.8,181.1,349.2,186.6z"/>
		<ellipse class="st3" cx="349.8" cy="192.3" rx="0.7" ry="1.1"/>
		<path class="st19" d="M356.2,186.8c-1.1,0.1-2.8,0.1-4.7-0.4c-1.5-0.4-4.9-1.3-6.7-4.4c-0.4-0.7-1.9-3.3-0.8-5.8
			c1.2-2.6,4.4-3.2,5.6-3.4c3.4-0.6,6.2,0.9,7.1,1.5c0.9-2.7,2.3-4.5,3.1-5.5c4.9-5.4,12.1-5,13.5-4.9c1.8,0.1,3.8,0.3,5.2,1.7
			c0.3,0.3,1,1,2,4.9c1.2,4.5,0.8,5.1,1.7,6.1c1.1,1.2,2.2,0.8,6.6,1.8c2.9,0.7,5.1,1.2,7.4,2.6c3.1,1.9,4.9,4.3,5.6,5.4
			c2.1,3.2,2.6,6.3,2.7,7.5c0.5,4.3-0.9,7.6-1.6,9.1c-2,4.5-5.1,7-6.4,8.1c-4.9,3.9-10,4.6-12.1,4.9c-2.2,0.3-7.4,1-13.1-1.4
			c-10.7-4.5-13.9-15.9-14.4-18.2C355.9,192.4,356,189,356.2,186.8z"/>
		<g>
			<path class="st16" d="M349.8,185.8c-1.1,1.5-2.4,3.7-3,6.7c-1.1,5,0.5,9.1,1.1,10.9c0.4,1.1,0.9,2.1,1.5,3
				c2.4,3.5,6.3,4.3,7.3,4.5c4.3,0.9,7.7-0.9,8.6-1.4"/>
		</g>
		<g>
			<path class="st16" d="M361.6,210.8c0.3,0.6,0.7,1.2,1,1.8"/>
		</g>
		<g>
			<path class="st16" d="M349.5,185.6c-2.5-0.8-4.6-2.9-5.5-5.5c-0.5-1.3-0.6-2.9,0.2-4.1c0.4-0.7,1.1-1.3,1.9-1.7
				c1.3-0.8,2.7-1.5,4.2-1.6c2.1-0.2,4.2,0.6,6.1,1.4"/>
		</g>
		<g>
			<path class="st16" d="M356.7,185.3c-1.8-6.4-0.4-14,4.9-18c3-2.3,6.9-3.3,10.7-3.4c2.8-0.1,5.9,0.5,7.4,2.9
				c1.9,3,0.2,7.5,2.8,9.9c1.4,1.4,3.6,1.5,5.5,1.7c3.4,0.4,6.8,1.5,9.6,3.5c3.9,2.8,6.6,7.3,7.1,12.1c0.5,4.8-1.1,9.8-4.4,13.3
				c-1.9,2.1-4.3,3.7-6.8,5c-5,2.7-10.8,4.5-16.4,3.3c-2.7-0.6-5.2-1.8-7.6-3.2c-1.8-1.1-3.5-2.2-5.1-3.6c-6.5-5.7-9.6-14.9-8-23.3"
				/>
		</g>
		<g>
			<path class="st16" d="M349.1,185.5c2.2,1.1,4.7,1.5,7.1,1.3"/>
		</g>
	</g>
</g>
<g id="front_details">
	<path class="st3" d="M198.9,555.5h-9.9c0-70.5,0-141,0-211.5c3.3,0.2,6.6,0.4,9.8,0.6C198.8,414.9,198.8,485.2,198.9,555.5z"/>
	<path class="st13" d="M358.4,258.4c-4.2,51.7-10,144.6-11.2,164.3c-0.2,2.5,0.1,5,0.8,7.5c2,7.4,6.6,23,8.4,21.5
		c1.9-1.6,72.7-31.2,100.5-42.8c6.8-2.8,11.6-9.4,12.6-17.1l20.4-165.9c1.1-9.1-3.3-17.9-11-21.9l0,0c-3.9-2.1-8.4-2.7-12.7-1.8
		l-72.8,15C374.3,221,360,237.9,358.4,258.4z"/>
</g>
</svg>
