<?xml version="1.0" encoding="utf-8"?>
<!-- Generator: Adobe Illustrator 23.0.3, SVG Export Plug-In . SVG Version: 6.00 Build 0)  -->
<svg version="1.1" xmlns="http://www.w3.org/2000/svg" xmlns:xlink="http://www.w3.org/1999/xlink" x="0px" y="0px"
	 viewBox="0 0 388.5 567.8" style="enable-background:new 0 0 388.5 567.8;" xml:space="preserve">
<style type="text/css">
	.st0{fill:#202124;}
	.st1{fill:#FFFFFF;stroke:#202124;stroke-width:0.75;stroke-miterlimit:10;}
	.st2{fill:#9B9B9B;}
	.st3{fill:#727272;}
	.st4{fill:#E8E8E8;}
	.st5{fill:none;stroke:#202124;stroke-miterlimit:10;}
	.st6{fill:#5492ED;}
	.st7{fill:#EB506E;}
	.st8{fill:#FFFFFF;}
	.st9{fill:#B1CEFC;}
	.st10{fill:none;}
	.st11{fill:#F7CD5B;}
	.st12{fill:#040844;}
</style>
<g id="plant">
	<path class="st0" d="M201,543.7c-12.8,0-25.7,0-38.5,0c-4-21.3-7.9-42.6-11.9-63.9H210C207,501.1,204,522.4,201,543.7z"/>
	<ellipse class="st1" cx="180.2" cy="481.1" rx="29.6" ry="7.5"/>
	<g>
		<g>
			<path class="st2" d="M184.9,424.5c-7.7,2.9-14.5,13.4-11.1,21.5c1.8,4.3,5.7,7.2,8.3,10.8c5.1,6.9,2.7,15.4-0.7,22.5
				c-0.8,1.7,1.8,3.3,2.6,1.5c3.7-7.9,6.4-17.4,1-25.2c-2.4-3.5-6-6.1-8-9.9c-3.4-6.5,2.3-16,8.7-18.4
				C187.4,426.7,186.7,423.8,184.9,424.5L184.9,424.5z"/>
		</g>
	</g>
	<g>
		<g>
			<path class="st2" d="M194.8,434.2c2.6,5.8,0.5,11.6-3.7,16c-2.6,2.7-5.3,4.8-7.1,8.2c-0.9,1.7,1.7,3.2,2.6,1.5
				c2.8-5.5,8.6-8.3,11-14.1c1.8-4.4,1.7-8.8-0.3-13.1C196.6,431,194,432.5,194.8,434.2L194.8,434.2z"/>
		</g>
	</g>
	<g>
		<g>
			<path class="st2" d="M161.4,438.1c1.1,7.5-0.8,13.3,4.3,19.7c2,2.5,4.4,4.2,7.3,5.6c4.1,1.9,10,3.3,10.4,8.8c0.1,1.9,3.1,1.9,3,0
				c-0.5-6.6-6.1-8.8-11.4-11.2c-4.7-2.1-8.3-5.4-9.9-10.4c-1.3-4.3-0.3-8.8-0.9-13.2C164.1,435.4,161.2,436.2,161.4,438.1
				L161.4,438.1z"/>
		</g>
	</g>
	<path class="st2" d="M163.1,448c-2-0.9-6.1-3-8.9-7.5c-5.8-9.5-0.3-20.2,0-20.9c2,1.4,5.3,4,7.7,8.3
		C166.8,436.9,163.7,446.2,163.1,448z"/>
	<path class="st2" d="M171.8,461c-1.5-0.1-3-7-2.5-13.2c0.5-6,3-10.7,4.8-13.5c2.3,8.6,1.6,15.1,0.7,19.3
		C174.5,455.1,173.2,461,171.8,461z"/>
	<path class="st2" d="M181.9,427.7c-1.1-1.6-2.1-3.7-2.8-6.3c-2.3-9.2,2.4-17,3.7-19c1.3,1.5,2.8,3.6,3.7,6.5
		C189.4,418.2,182.7,426.7,181.9,427.7z"/>
	<path class="st2" d="M182.4,454.8c-1.9-0.3-2.8-5.3-2.6-8.8c0.3-6.8,5-11.3,6.5-12.6c1,1.7,2.3,4.5,2.5,8
		C188.9,448.2,184.7,455.1,182.4,454.8z"/>
	<path class="st2" d="M185.2,473.9c0.5-1.9,2-6.7,6.5-10.8c4.6-4.2,9.8-5.3,11.7-5.5c0,1.8-0.4,5.4-2.8,8.9
		C195.6,474,186.1,473.9,185.2,473.9z"/>
	<path class="st2" d="M197.2,442.1c-0.8-1.8-3.2-7.6-1.6-14.8c1.7-7.7,6.8-12,8.3-13.2c0.9,2.2,1.8,5.1,1.8,8.6
		C206.1,433.1,199,440.4,197.2,442.1z"/>
</g>
<g id="phone">
	<path class="st3" d="M206.5,373.2c-58.1,27.2-116.2,54.4-174.3,81.7c-14.9,7-32-4-31.8-20.4L3.5,57.6c0.1-10.6,7.6-19.7,18-21.7
		c58.5-11.7,117.1-23.4,175.6-35c14-2.8,26.9,8,26.7,22.2c-1.5,110.1-3,220.1-4.5,330.2C219.3,361.8,214.3,369.5,206.5,373.2z"/>
	<path class="st4" d="M201.2,355C147,380,92.9,405,38.7,430.1C23.8,436.9,6.8,426,7,409.6l3-348.1c0.1-10.6,7.6-19.7,18-21.7
		C82.6,29,137.2,18.2,191.7,7.5c13.9-2.7,26.9,8,26.7,22.2c-1.4,101.8-2.8,203.5-4.2,305.3C214.1,343.6,209,351.4,201.2,355z"/>
	<line class="st5" x1="50.8" y1="114.7" x2="154.6" y2="90.9"/>
	<line class="st5" x1="45.1" y1="119" x2="41.9" y2="124.4"/>
	<line class="st5" x1="49.7" y1="119.1" x2="46.6" y2="124.5"/>
	<line class="st5" x1="154.8" y1="86.2" x2="158" y2="80.8"/>
	<line class="st5" x1="151" y1="86" x2="154.2" y2="80.6"/>
	<g>
		<g>
			<path class="st6" d="M180.4,63.7c0.2,1.6,0.3,3.3,0.3,5c0,1,1.5,1,1.5,0c0-1.7-0.1-3.3-0.3-5C181.8,62.7,180.3,62.7,180.4,63.7
				L180.4,63.7z"/>
		</g>
	</g>
	<g>
		<g>
			<path class="st6" d="M187.1,68.4c-4-1-14.7,1.4-11.6,7.7c1.3,2.7,5.4,2.4,7.9,2.3c1,0,2-0.2,2.9-0.1c2.2-0.2,3.2,0.7,3.1,2.8
				c1.2,1.9,0.6,3.3-1.6,4.3c-3.4,2.4-8.3,2.9-11-1c-0.5-0.8-1.8,0-1.3,0.8c3.7,5.5,14.4,4.5,16.3-2.4c0.7-2.5-0.8-4.7-3.2-5.6
				c-1.9-0.6-3.8-0.3-5.8-0.3c-1.3,0-2.6-0.1-3.8-0.3c-1.6-3.5-1.2-5.6,1.3-6.4c1.9-1.2,4.4-1,6.5-0.5
				C187.7,70.1,188.1,68.6,187.1,68.4L187.1,68.4z"/>
		</g>
	</g>
	<g>
		<g>
			<path class="st6" d="M184.3,88.7c0.2,1.4,0.2,2.9,0.1,4.4c-0.1,1,1.4,1,1.5,0c0.1-1.6,0-3.2-0.2-4.8
				C185.6,87.3,184.2,87.7,184.3,88.7L184.3,88.7z"/>
		</g>
	</g>
	<line class="st5" x1="46" y1="168.4" x2="161.8" y2="137.3"/>
	<line class="st5" x1="131.1" y1="159.4" x2="193.2" y2="140.3"/>
	<line class="st5" x1="77.1" y1="189.7" x2="162.2" y2="164.2"/>
	<line class="st5" x1="32" y1="350.1" x2="183.2" y2="294.1"/>
	<line class="st5" x1="122.8" y1="343.5" x2="203.9" y2="310.5"/>
	<line class="st5" x1="57.5" y1="389.6" x2="165.5" y2="343.5"/>
</g>
<g id="character">
	<g id="leg_right">
		<path class="st7" d="M362.9,542.4c-12.9,4.1-30.1,12.1-29.3,15.5c0.6,2.4,10.5,3.3,50.2-2.4c-1.1-5.7-2.1-11.5-3.2-17.2
			C376.2,538.9,370,540.1,362.9,542.4z"/>
		<g>
			<g>
				<path class="st8" d="M360.4,542.1c-1-1-2.3-1.5-3.7-1.2c-1.1,0.2-2.7,1.2-2.5,2.5c0.4,3.3,5.2,0.4,6.2-0.7
					c-0.2-0.1-0.4-0.2-0.6-0.3c-0.1,2-0.3,4.2,0.9,5.9c0.7,1,2.1,1.9,3.4,1.4c1.3-0.5,1.5-2,1.2-3.2c-0.5-2-2.4-3.1-4-4.1
					c-0.4-0.2-0.8,0.4-0.4,0.6c1,0.6,2.1,1.1,2.8,2c0.2,0.3,0.4,0.6,0.6,0.9c1,1.9,0.1,2.7-2.7,2.3c-1.6-1.3-1.3-4.1-1.2-5.8
					c0-0.3-0.4-0.5-0.6-0.3c-0.5,0.5-2.7,2.6-3.6,2c0-0.8,0.1-1.6,0.1-2.4c0.3-0.1,0.6-0.1,0.9-0.2c1,0,1.8,0.4,2.5,1
					C360.2,543,360.7,542.5,360.4,542.1L360.4,542.1z"/>
			</g>
		</g>
		<g>
			<g>
				<path class="st8" d="M344.3,549.7c1.4,0.2,2.7,0.8,3.7,1.9c0.3,0.3,0.9-0.2,0.5-0.5c-1.1-1.1-2.5-1.8-4-2.1
					C344,548.9,343.8,549.6,344.3,549.7L344.3,549.7z"/>
			</g>
		</g>
		<g>
			<g>
				<path class="st8" d="M348.5,547.7c1.4,0.3,2.5,1,3.4,2.1c0.3,0.4,0.8-0.2,0.5-0.5c-1-1.2-2.3-2-3.8-2.3
					C348.2,546.9,348,547.6,348.5,547.7L348.5,547.7z"/>
			</g>
		</g>
		<g>
			<g>
				<path class="st8" d="M352.1,545.9c1.3,0.2,2.4,0.8,3.1,1.9c0.3,0.4,0.9,0,0.6-0.4c-0.8-1.2-2.1-2-3.6-2.2
					C351.8,545.1,351.6,545.8,352.1,545.9L352.1,545.9z"/>
			</g>
		</g>
		<g>
			<g>
				<path class="st8" d="M354.8,544.9c0.9,0.5,1.7,1.1,2.6,1.6c0.4,0.3,0.8-0.4,0.4-0.6c-0.9-0.5-1.7-1.1-2.6-1.6
					C354.7,544,354.4,544.6,354.8,544.9L354.8,544.9z"/>
			</g>
		</g>
		<g>
			<g>
				<path class="st8" d="M353.4,558.1c9-0.9,17.9-2.1,26.8-3.7c0.5-0.1,0.3-0.8-0.2-0.7c-8.8,1.5-17.7,2.7-26.6,3.6
					C352.9,557.4,352.9,558.1,353.4,558.1L353.4,558.1z"/>
			</g>
		</g>
		<path class="st9" d="M373.4,307.7c0.2,4.2,0.5,10.4,0.8,17.7c0.5,11.7,1,24.8,1.7,43.6c0.3,8.6,0.8,21.5,1.4,38.5
			c0.9,26.1,1.5,47.9,1.9,61.7c0.5,16.5,1.1,40.1,1.7,69c-0.6,1-1.7,2.6-3.8,3.9c-2.3,1.4-4.5,1.5-6.3,1.6c-3.2,0.1-5.8-0.6-7.7-1.3
			c-1-4.4-2.5-11.5-4.5-20.2c-8.7-37.7-13-50-23.5-92.6c-6.7-27-4.6-20.5-11.9-50c-3.3-13.3-5.7-22.6-8-36.2
			c-2.2-13-3.3-23.8-3.9-31C331.8,310.9,352.6,309.3,373.4,307.7z"/>
		<g>
			<path class="st10" d="M373.5,309.6c3.2,76.2,5.7,152.4,7.3,228.7"/>
		</g>
		<g>
			<path class="st10" d="M316.2,350.1c14.1,62.3,29.4,124.2,46,185.9"/>
		</g>
		<g>
			<path class="st10" d="M362.9,542.4c3.4,2.2,7.8,1.6,11.7,0.5c2-0.5,4.1-1.3,5.2-3"/>
		</g>
	</g>
	<g id="leg_left">
		<path class="st7" d="M310.1,545.9c-1.9,1-4.3,2.3-7.2,3.9c-14,7.8-25.7,14.3-25,16.7c0.6,2.2,11.5,2.2,50.6-5
			c-0.3-5.5-0.6-10.9-0.9-16.4C321.8,545.4,316,545.6,310.1,545.9z"/>
		<g>
			<g>
				<path class="st8" d="M306.5,548.3c-2.4-1.3-7-1.3-8.4,1.7c-0.5,1,0,1.8,1,2c1.9,0.4,3.4-1.3,5-1.9c1.4-0.6,1.2,0.8,1.3,2
					c0.1,0.9,0.1,1.9,0.6,2.7c0.5,0.8,1.5,1.4,2.5,1c3.2-1.5-0.1-5.9-2-6.7c-0.4-0.2-0.8,0.4-0.4,0.6c1.3,0.6,2.7,1.9,2.7,3.5
					c0.3,1.2-0.5,1.4-2.5,0.7c-0.1-0.4-0.1-0.9-0.2-1.3c-0.1-0.6-0.1-1.1-0.2-1.7c-0.1-0.8,0.2-2.1-0.9-2.3c-0.3,0-0.5,0.2-0.7,0.3
					c-1,0.5-2.5,2.5-3.8,2.2c-0.5,0.3-0.7,0-0.8-0.7c-0.6-0.5-0.6-0.9,0-1.1c0.4-0.6,1.3-0.8,2-0.9c1.5-0.4,2.9-0.1,4.2,0.6
					C306.5,549.2,306.9,548.5,306.5,548.3L306.5,548.3z"/>
			</g>
		</g>
		<g>
			<g>
				<path class="st8" d="M288,557.7c1.3,0,2.5,0.5,3.5,1.5c0.3,0.3,0.9-0.2,0.5-0.5c-1.1-1.1-2.5-1.7-4-1.7
					C287.5,557,287.5,557.7,288,557.7L288,557.7z"/>
			</g>
		</g>
		<g>
			<g>
				<path class="st8" d="M291.6,556.1c1.3,0,2.5,0.5,3.3,1.5c0.3,0.4,0.8-0.2,0.5-0.5c-1-1.1-2.4-1.7-3.8-1.7
					C291.1,555.4,291.1,556.1,291.6,556.1L291.6,556.1z"/>
			</g>
		</g>
		<g>
			<g>
				<path class="st8" d="M294.5,553.9c1.4,0.3,2.7,1.1,3.5,2.3c0.3,0.4,0.9,0,0.6-0.4c-0.9-1.4-2.3-2.3-4-2.6
					C294.2,553.1,294,553.8,294.5,553.9L294.5,553.9z"/>
			</g>
		</g>
		<g>
			<g>
				<path class="st8" d="M298.2,552.8c1.5,0.1,2.9,0.9,3.9,2.2c0.3,0.4,0.9,0,0.6-0.4c-1.1-1.5-2.7-2.3-4.5-2.5
					C297.7,552,297.7,552.7,298.2,552.8L298.2,552.8z"/>
			</g>
		</g>
		<g>
			<g>
				<path class="st8" d="M300.3,564.8c8.6-1.6,17.2-3.3,25.7-5.1c0.5-0.1,0.3-0.8-0.2-0.7c-8.6,1.7-17.1,3.4-25.7,5.1
					C299.6,564.1,299.8,564.9,300.3,564.8L300.3,564.8z"/>
			</g>
		</g>
		<path class="st9" d="M272,330.8c0.5,3.9,1.2,10,2.2,17.4c1.7,12.7,4.9,35.3,16.9,102.2c6.7,37.4,10.4,56.2,11.5,62.1
			c2.8,14.4,5.3,26.6,7.2,36c1.2,0.7,2.8,1.5,4.6,2c6.3,1.7,11.8-0.5,13.9-1.5c1-37.2,2.5-68.3,3.9-92c0.6-10.2,1.4-23.7,2.7-41.7
			c2-26.2,3.4-39.4,6.2-74.5c1.1-13.4,1.9-24.3,2.4-31.1C319.7,316.7,295.8,323.8,272,330.8z"/>
		<g>
			<path class="st10" d="M271.6,331.3c10.7,71.8,23.2,143.4,37.5,214.6"/>
		</g>
		<g>
			<g>
				<path class="st8" d="M340.2,343.5c-5.8,67.6-10.1,135.3-13,203.1c0,0.5,0.7,0.5,0.8,0c2.9-67.8,7.2-135.5,13-203.1
					C341,343,340.2,343,340.2,343.5L340.2,343.5z"/>
			</g>
		</g>
		<g>
			<path class="st10" d="M309.8,548.5c4.9,3.1,11.6,3.3,16.6,0.3"/>
		</g>
	</g>
	<g id="cash">
		<path class="st7" d="M74.2,211.8c6.9,21.1,16.2,28.3,23.6,30.9c16.3,5.6,29.9-9.1,45.4-3c11.7,4.5,17.5,18,20.6,29.1
			c11.5-8.1,25.5-16.8,42-24.9c19.4-9.5,37.4-15.8,52.7-20.1c-7.5-16.3-16.2-21.9-22.7-24c-16.6-5.3-32.6,7.6-41.1,0
			c-2.1-1.9-4.6-5.8-3.9-15C151.9,193.8,113,202.8,74.2,211.8z"/>
		<g>
			<g>
				<path class="st8" d="M126.5,201.1c7.9,1,15.9,1.1,23.8,0.2c6.9-0.8,13.8-2.4,20.8-1.8c2.1,0.2,4.2,0.6,6.2,1.2
					c2.8,0.2,3.9,1.7,3.3,4.5c1.2,2.4,0.6,4.2-1.8,5.2c-2.7,1.9-5.8,3.2-8.8,4.4c-8,3.5-16.2,6.3-24.6,8.7c-0.5,0.1-0.3,0.9,0.2,0.7
					c4.4-1.2,46.5-13.7,36.3-22.2c-5.6-4.7-15.8-3.6-22.4-2.8c-11.2,1.4-21.8,2.6-33,1.1C126,200.3,126,201,126.5,201.1L126.5,201.1
					z"/>
			</g>
		</g>
		<g>
			<g>
				<path class="st8" d="M165.5,218.2c5.4-0.2,10.6,0.7,15.6,2.8c0.4,0.2,0.6-0.5,0.2-0.7c-5.1-2.1-10.3-3.1-15.8-2.8
					C165,217.4,165,218.2,165.5,218.2L165.5,218.2z"/>
			</g>
		</g>
		<g>
			<g>
				<path class="st8" d="M162,248.9c13.9-6,27.8-12.3,41.5-18.7c0.4-0.2,0.1-0.9-0.4-0.6c-13.7,6.5-27.6,12.7-41.5,18.7
					C161.1,248.4,161.5,249.1,162,248.9L162,248.9z"/>
			</g>
		</g>
		<g>
			<g>
				<path class="st8" d="M181.6,247.2c14.3-7.1,28.6-14.2,42.9-21.2c0.4-0.2,0.1-0.9-0.4-0.6c-14.3,7.1-28.6,14.2-42.9,21.2
					C180.8,246.8,181.1,247.4,181.6,247.2L181.6,247.2z"/>
			</g>
		</g>
	</g>
	<g id="head">
		<path class="st11" d="M295.3,132.4c0.2,1.6,0.6,3.9,1.4,6.6c1.2,4.2,1.8,6.3,3.7,8.4c2.5,2.8,5.7,3.8,7.1,4.1c2.7,0.6,5,0.2,6.3,0
			c0.8,1,1.6,1.9,2.4,2.9c0.8,0.1,2.4,0.1,4.1-0.6c2.4-1,3.7-2.9,4.1-3.6c-0.2-1.7-0.6-4.1-1.5-6.8c-0.9-2.5-3-8.5-8-11.7
			C306.7,126.4,295.9,132.1,295.3,132.4z"/>
		<path class="st6" d="M303.3,134.2c-1.6,0.2-3.9,0.4-6.7,0.2c-2.8-0.2-5.2-0.3-7.9-1.5c-1.5-0.7-4.3-1.9-6.2-4.7
			c-2.5-3.8-1.9-7.9-1.7-9.2c1-6.6,6.1-10.5,9-12.7c5-3.8,10.1-5.1,13-5.6c2.5-0.4,11.7-1.9,20.4,3.6c1.7,1.1,5.8,3.8,8.6,9
			c1.2,2.2,1.8,5.2,2.9,11.1c1,5.2,1,7.2,0.6,9.2c-0.3,1.4-0.8,3.8-2.8,5.9c-1.8,2-4,2.6-5.1,3c-5.2,1.6-9.9-0.1-13-1.2
			C309.4,139.6,305.7,136.7,303.3,134.2z"/>
		<g>
			<path class="st10" d="M295.9,135.4c0.6,3,1.6,6,2.9,8.8c0.7,1.5,1.5,3,2.6,4.2c1.9,2,4.8,3,7.5,3s5.5-0.6,8.1-1.6"/>
		</g>
		<g>
			<g>
				<path class="st0" d="M313.5,151.6c0.8,1,1.6,1.9,2.4,2.9c0.3,0.4,0.8-0.2,0.5-0.5c-0.8-1-1.6-1.9-2.4-2.9
					C313.7,150.7,313.2,151.3,313.5,151.6L313.5,151.6z"/>
			</g>
		</g>
		<g>
			<path class="st10" d="M302.6,134.3c-3.9,0.2-7.8,0.4-11.6-0.5c-3.8-0.9-7.4-3.1-9.2-6.5c-1.5-2.9-1.6-6.4-0.7-9.5
				c0.9-3.1,2.8-5.9,5.1-8.2c4.6-4.8,10.9-8,17.5-8.9c6.6-0.9,13.5,0.4,19.3,3.8c2.1,1.2,4,2.6,5.5,4.4c5.3,5.9,6,14.4,6.6,22.3"/>
		</g>
		<g>
			<path class="st10" d="M303.3,134.2c2.2,2.6,5.1,4.3,8.1,5.8c3.2,1.5,6.5,2.8,10,3.1c3.5,0.3,7.2-0.4,10-2.6
				c2.8-2.1,4.5-5.8,3.8-9.3"/>
		</g>
	</g>
	<g id="torso">
		<path class="st12" d="M266.2,170.2c0.5-0.3,1.1-0.8,1.9-1.4c1.7-1.2,7.3-5.1,14.2-9.1c3.9-2.2,10.5-6,19.5-9.4
			c6-2.3,15-5.6,27.3-6.7c12-1.1,21.2,0.4,26.7,1.3c10.4,1.8,18.8,4.7,24.9,7.3c1.2,3.7,2.6,8.7,3.9,14.5c1,4.8,2.1,11.3,2.8,20.7
			c0.3,3.9,1.1,16.3-0.2,36.4c-1.1,16.9-3.1,29.7-4.3,37.2c-2.7,16.9-6,31.4-8.1,40.5c-0.9,3.8-1.6,6.9-2.1,9
			c-1.5,1-3.6,2.3-6.2,3.8c-3.5,2-9.1,5-16.4,8c-2.8,1.2-7.5,3-13.3,4.8c-4,1.2-9.4,2.7-15.8,3.9c-2.2,0.4-8.3,1.5-15.4,2.1
			c-7.3,0.6-19,0.8-34-1.6c-1.6-7.6-3.4-17.1-5.1-28.1c-0.8-4.9-2.3-15.3-3.5-27.7c-0.4-4.7-2.2-24.5-1.5-51.1
			C261.9,209.3,263.2,190.9,266.2,170.2z"/>
		<g>
			<path class="st10" d="M266.6,169.8c21.9-15.8,47.9-27.8,74.9-26.7c13,0.5,25.6,4.1,37.8,8.5"/>
		</g>
		<g>
			<g>
				<path class="st0" d="M380.7,154.9c8.6,23.9,7.8,50.8,5.6,75.8c-2.2,26-7.3,51.6-13.3,76.9c-0.1,0.5,0.6,0.7,0.7,0.2
					c6.1-25.4,11.2-51.1,13.4-77.1c2.1-25,3-52-5.7-76C381.3,154.2,380.5,154.4,380.7,154.9L380.7,154.9z"/>
			</g>
		</g>
		<g>
			<path class="st10" d="M264.7,185.5c-6.3,48.4-3.8,97.9,7.3,145.3"/>
		</g>
		<g>
			<path class="st10" d="M273.7,332c34.1,4.9,70-2.9,99-21.5"/>
		</g>
	</g>
	<g id="hand">
		<path class="st11" d="M151.8,255.8c-0.4-1-0.9-2.5-1.6-4.4c-1.1-3-1-3.1-1.7-4.9c-0.9-2.5-1.9-4.5-4-8.5c-0.2-0.4-0.9-1.7-2.3-2.7
			c-0.6-0.4-1.4-1-1.9-0.7c-0.9,0.4-0.7,2.5-0.6,4.1c0.1,1.8,0.5,3.2,0.8,4.1c-1-0.4-2.5-1-4.2-1.8c-4.9-2.1-9.2-3.9-13.9-6.3
			c-2.6-1.3-6.2-3.3-10.3-5.9c-0.6,0.2-1.3,0.7-1.7,1.4c-0.4,0.8-0.2,1.5,0.1,3c0.3,2.1,0,1.8,0.3,4.2c0.1,1.1,0.4,2.6,0.9,4.4
			c0.9,1.4,2.4,3.4,4.5,5.6c6.7,7.4,13.8,11.2,18.8,13.8c3,1.6,7.2,3.6,12.6,5.4C149,262.9,150.4,259.4,151.8,255.8z"/>
		<path class="st12" d="M266.6,169.8c-0.8,0.8-1.9,2.1-3.2,3.7c-3.3,4.2-5.2,7.8-5.9,9c-4,7.5-3.7,5.1-14.8,25.3
			c-10.1,18.4-19.1,36.5-23.3,44.9c-2.7,0-7.1,0-12.6,0c-20.8-0.1-27.3-0.3-38.7-0.1c-4.2,0.1-10.5,0.2-18.3,0.6
			c-0.8,1.1-1.7,2.7-2.3,4.9c-1.1,4.3,0,7.9,0.5,9.4c4.7,1.4,11.4,3.4,19.6,5.7c8.9,2.5,18.4,5.2,30.9,8.1c3.7,0.9,0.4,0.1,26.9,5.2
			c2.5,0.5,7,1.4,13,1.1c2.6-0.1,6.7-0.3,11.5-1.8c4.3-1.4,7.5-3.3,11-5.7c7.7-5.4,13.2-10.8,17.5-15.1c11-11.2,16.5-16.8,20.2-22.3
			c3.3-4.9,7.3-11.8,10.7-20.7c1.1-3.2,5.4-16.6-1.2-30.2C301.3,177.3,284.7,168.5,266.6,169.8z"/>
		<g>
			<path class="st10" d="M265.3,170.9c-17.8,25.7-31.7,53.9-45.5,82"/>
		</g>
		<g>
			<path class="st10" d="M150.6,252.5c22.9,0.1,45.9,0.1,68.8,0.2"/>
		</g>
		<g>
			<path class="st10" d="M149.8,253.2c-2.4,3.6-3.4,8.1-2.8,12.4"/>
		</g>
		<g>
			<g>
				<path class="st8" d="M148,267.9c15.2,4.5,30.4,9,45.7,12.7c14,3.4,28.9,7.2,43.4,7.4c12.9,0.2,23.1-6.1,32.6-14.4
					c11.4-10,21.7-21.1,31.1-32.9c0.3-0.4-0.2-0.9-0.5-0.5c-8.7,10.9-18.2,21.2-28.5,30.6c-11.2,10.2-22.5,17.5-38.3,16.3
					c-28.9-2.2-57.7-11.8-85.3-19.9C147.7,267.1,147.5,267.8,148,267.9L148,267.9z"/>
			</g>
		</g>
		<g>
			<g>
				<path class="st0" d="M150.9,252.6c-1.2-4.1-2.6-8.1-4.5-12c-1.3-2.6-2.5-5.3-5.3-6.3c-0.5-0.2-0.7,0.6-0.2,0.7
					c3.2,1.1,4.7,5.4,6,8.2c1.4,3.1,2.5,6.2,3.4,9.5C150.3,253.3,151.1,253.1,150.9,252.6L150.9,252.6z"/>
			</g>
		</g>
		<g>
			<g>
				<path class="st0" d="M141.6,244.3c-1.3-2.7-1.8-5.7-1.3-8.7c0.1-0.5-0.6-0.7-0.7-0.2c-0.5,3.2,0,6.3,1.4,9.3
					C141.1,245.1,141.8,244.7,141.6,244.3L141.6,244.3z"/>
			</g>
		</g>
		<g>
			<path class="st10" d="M140.4,242.6c-9.7-3.9-19.2-8.4-28.4-13.4"/>
		</g>
		<g>
			<g>
				<path class="st0" d="M110.1,230.3c3.7,4.9,8.3,8.7,13.9,11.2c0.4,0.2,0.8-0.5,0.4-0.6c-5.5-2.4-10.1-6.1-13.7-10.9
					C110.5,229.5,109.8,229.9,110.1,230.3L110.1,230.3z"/>
			</g>
		</g>
		<g>
			<g>
				<path class="st0" d="M110.2,233.3c3.6,5.1,8.2,9.2,13.7,12.2c0.4,0.2,0.8-0.4,0.4-0.6c-5.4-2.9-9.9-6.9-13.4-11.9
					C110.5,232.5,109.9,232.9,110.2,233.3L110.2,233.3z"/>
			</g>
		</g>
		<g>
			<g>
				<path class="st0" d="M111.6,237.7c2,5,6.6,8,11,10.7c0.4,0.3,0.8-0.4,0.4-0.6c-4.3-2.6-8.7-5.4-10.7-10.2
					C112.1,237,111.4,237.2,111.6,237.7L111.6,237.7z"/>
			</g>
		</g>
		<g>
			<path class="st10" d="M110,239.2c1.6,2.3,3.3,4.5,5.3,6.6c9.1,9.8,21.5,16.1,34.1,20.7"/>
		</g>
	</g>
</g>
</svg>
